<?xml version="1.0" encoding="UTF-8"?>
<!DOCTYPE svg PUBLIC "-//W3C//DTD SVG 1.1//EN" "http://www.w3.org/Graphics/SVG/1.1/DTD/svg11.dtd">
<svg version="1.1" xmlns="http://www.w3.org/2000/svg" xmlns:xlink="http://www.w3.org/1999/xlink" width="100%" height="100%" viewBox="0, 0, 223, 223">
  <defs>
    <linearGradient id="Gradient_1" gradientUnits="userSpaceOnUse" x1="423.25" y1="591.062" x2="311.75" y2="397.938">
      <stop offset="0" stop-color="#3FA49A"/>
      <stop offset="1" stop-color="#FBD462"/>
    </linearGradient>
  </defs>
  <g id="Ebene_1" transform="translate(-256, -383)">
    <g id="ANTLRng.svg">
      <path d="M367.5,383 C429.08,383 479,432.92 479,494.5 C479,556.08 429.08,606 367.5,606 C305.92,606 256,556.08 256,494.5 C256,432.92 305.92,383 367.5,383 L367.5,383 z M394.151,555.176 C390.921,555.253 392.286,555.065 390.031,555.505 Q384.69,556.865 381.233,562.852 Q377.688,568.992 378.895,574.109 Q380.102,579.226 385.819,582.527 Q391.028,585.535 396.235,586.556 L403.93,573.227 L393.257,567.065 L390.279,572.224 L394.693,574.773 L392.457,578.646 Q391.039,578.211 389.551,577.352 Q386.827,575.78 386.431,573.127 Q386.035,570.473 388.037,567.006 Q390.078,563.471 392.775,562.49 Q395.472,561.511 398.398,563.2 Q401.595,565.046 403.506,567.908 L408.647,563.885 Q407.499,562.32 405.681,560.684 Q403.862,559.048 401.528,557.7 C399.139,556.182 396.869,555.695 394.151,555.176 z M360.356,534.403 L346.079,559.132 L351.999,562.55 L358.434,551.403 Q359.684,549.238 361.736,544.943 L361.888,545.03 L360.862,567.667 L369.624,572.726 L383.901,547.997 L377.947,544.559 L371.492,555.74 Q370.184,558.006 368.262,561.881 L368.161,561.823 L369.084,539.442 L360.356,534.403 z M368.373,409.5 L367.055,409.5 C359.408,409.5 353.933,413.481 350.864,419.978 L314.609,497.534 L293.969,541.659 C292.881,543.756 292.241,545.641 292.241,547.531 C292.241,554.237 297.687,559.5 304.687,559.5 C310.403,559.5 314.975,556.566 317.174,551.312 L339.737,501.512 L367.264,440.759 L394.842,501.675 L401.595,516.55 L345.449,516.55 L423.694,558.037 C423.725,558.056 423.763,558.075 423.794,558.097 L423.844,558.122 L423.844,558.115 C425.66,559 427.722,559.5 430.066,559.5 C437.269,559.5 442.759,554.041 442.759,547.109 C442.759,545.45 442.313,543.544 441.222,541.659 L420.66,497.659 L384.348,419.978 C381.273,413.481 376.026,409.5 368.373,409.5 z" fill="url(#Gradient_1)"/>
    </g>
  </g>
</svg>
