<?xml version="1.0" encoding="UTF-8"?>
<!DOCTYPE svg PUBLIC "-//W3C//DTD SVG 1.1//EN" "http://www.w3.org/Graphics/SVG/1.1/DTD/svg11.dtd">
<svg version="1.1" xmlns="http://www.w3.org/2000/svg" xmlns:xlink="http://www.w3.org/1999/xlink" x="0" y="0" width="75" height="75" viewBox="0, 0, 75, 75">
  <g id="Page-1">
    <g>
      <path d="M34.217,31.716 L38.615,31.716 L39.708,30.212 L39.708,18.428 L33.125,18.428 L33.125,30.213 L34.217,31.716" fill="#8A4281" id="path36"/>
      <path d="M31.381,36.972 L32.74,32.789 L31.647,31.285 L20.44,27.643 L18.406,33.905 L29.614,37.546 L31.381,36.972" fill="#8A4281" id="path38"/>
      <path d="M35.504,41.293 L31.946,38.707 L30.177,39.283 L23.251,48.816 L28.577,52.685 L35.504,43.151 L35.504,41.293" fill="#8A4281" id="path40"/>
      <path d="M40.887,38.707 L37.329,41.292 L37.329,43.152 L44.255,52.685 L49.582,48.816 L42.654,39.282 L40.887,38.707" fill="#8A4281" id="path42"/>
      <path d="M40.091,32.788 L41.451,36.972 L43.219,37.545 L54.426,33.905 L52.392,27.643 L41.184,31.285 L40.091,32.788" fill="#8A4281" id="path44"/>
      <path d="M36.418,8.2 C20.76,8.2 8.021,20.936 8.021,36.592 C8.021,52.254 20.76,64.994 36.418,64.994 C52.074,64.994 64.811,52.254 64.811,36.592 C64.811,20.936 52.074,8.2 36.418,8.2 z M36.418,13.949 C48.921,13.949 59.062,24.085 59.062,36.592 C59.062,49.104 48.921,59.244 36.418,59.244 C23.909,59.244 13.77,49.104 13.77,36.592 C13.77,24.085 23.909,13.949 36.418,13.949 z" fill="#8A4281" id="path46"/>
      <path d="M53.616,42.904 L45.096,40.135 L45.66,38.399 L54.179,41.168 L53.616,42.904" fill="#8A4281" id="path48"/>
      <path d="M42.75,29.226 L41.274,28.154 L46.539,20.906 L48.016,21.978 L42.75,29.226" fill="#8A4281" id="path50"/>
      <path d="M30.173,29.16 L24.909,21.912 L26.385,20.84 L31.65,28.087 L30.173,29.16" fill="#8A4281" id="path52"/>
      <path d="M19.181,42.795 L18.618,41.06 L27.137,38.292 L27.7,40.028 L19.181,42.795" fill="#8A4281" id="path54"/>
      <path d="M35.448,54.696 L37.272,54.696 L37.272,45.738 L35.448,45.738 L35.448,54.696 z" fill="#8A4281" id="path56"/>
    </g>
  </g>
</svg>
